<mxfile host="Electron" agent="Mozilla/5.0 (Windows NT 10.0; Win64; x64) AppleWebKit/537.36 (KHTML, like Gecko) draw.io/25.0.2 Chrome/128.0.6613.186 Electron/32.2.5 Safari/537.36" version="25.0.2">
  <diagram name="Seite-1" id="BUVsjYhOHv-ONbri4KHI">
    <mxGraphModel dx="1434" dy="836" grid="1" gridSize="10" guides="1" tooltips="1" connect="1" arrows="1" fold="1" page="1" pageScale="1" pageWidth="827" pageHeight="1169" math="0" shadow="0">
      <root>
        <mxCell id="0" />
        <mxCell id="1" parent="0" />
        <mxCell id="zcHi2VBz8fP7Kc_Mwm1W-1" value="«interface»&lt;br&gt;&lt;b&gt;STType&lt;/b&gt;" style="html=1;whiteSpace=wrap;" vertex="1" parent="1">
          <mxGeometry x="379" y="450" width="110" height="50" as="geometry" />
        </mxCell>
        <mxCell id="zcHi2VBz8fP7Kc_Mwm1W-2" value="Array" style="swimlane;fontStyle=1;align=center;verticalAlign=top;childLayout=stackLayout;horizontal=1;startSize=26;horizontalStack=0;resizeParent=1;resizeParentMax=0;resizeLast=0;collapsible=1;marginBottom=0;whiteSpace=wrap;html=1;" vertex="1" parent="1">
          <mxGeometry x="450" y="595" width="160" height="90" as="geometry" />
        </mxCell>
        <mxCell id="zcHi2VBz8fP7Kc_Mwm1W-3" value="- name : String&lt;div&gt;- type: STType&lt;/div&gt;&lt;div&gt;- scope : Scope&lt;/div&gt;&lt;div&gt;- dimension : int&lt;/div&gt;" style="text;strokeColor=none;fillColor=none;align=left;verticalAlign=top;spacingLeft=4;spacingRight=4;overflow=hidden;rotatable=0;points=[[0,0.5],[1,0.5]];portConstraint=eastwest;whiteSpace=wrap;html=1;" vertex="1" parent="zcHi2VBz8fP7Kc_Mwm1W-2">
          <mxGeometry y="26" width="160" height="64" as="geometry" />
        </mxCell>
        <mxCell id="zcHi2VBz8fP7Kc_Mwm1W-6" value="BuiltIn" style="swimlane;fontStyle=1;align=center;verticalAlign=top;childLayout=stackLayout;horizontal=1;startSize=26;horizontalStack=0;resizeParent=1;resizeParentMax=0;resizeLast=0;collapsible=1;marginBottom=0;whiteSpace=wrap;html=1;" vertex="1" parent="1">
          <mxGeometry x="250" y="595" width="160" height="80" as="geometry" />
        </mxCell>
        <mxCell id="zcHi2VBz8fP7Kc_Mwm1W-7" value="- name : String&lt;div&gt;- type: STType&lt;/div&gt;&lt;div&gt;- scope : Scope&lt;br&gt;&lt;/div&gt;" style="text;strokeColor=none;fillColor=none;align=left;verticalAlign=top;spacingLeft=4;spacingRight=4;overflow=hidden;rotatable=0;points=[[0,0.5],[1,0.5]];portConstraint=eastwest;whiteSpace=wrap;html=1;" vertex="1" parent="zcHi2VBz8fP7Kc_Mwm1W-6">
          <mxGeometry y="26" width="160" height="54" as="geometry" />
        </mxCell>
        <mxCell id="zcHi2VBz8fP7Kc_Mwm1W-8" value="STCl&lt;span style=&quot;background-color: initial;&quot;&gt;ass&lt;/span&gt;" style="swimlane;fontStyle=1;align=center;verticalAlign=top;childLayout=stackLayout;horizontal=1;startSize=26;horizontalStack=0;resizeParent=1;resizeParentMax=0;resizeLast=0;collapsible=1;marginBottom=0;whiteSpace=wrap;html=1;" vertex="1" parent="1">
          <mxGeometry x="60" y="420" width="160" height="80" as="geometry" />
        </mxCell>
        <mxCell id="zcHi2VBz8fP7Kc_Mwm1W-9" value="- name : String&lt;div&gt;- type: STType&lt;/div&gt;&lt;div&gt;- inheritedScope : Scope&lt;br&gt;&lt;/div&gt;" style="text;strokeColor=none;fillColor=none;align=left;verticalAlign=top;spacingLeft=4;spacingRight=4;overflow=hidden;rotatable=0;points=[[0,0.5],[1,0.5]];portConstraint=eastwest;whiteSpace=wrap;html=1;" vertex="1" parent="zcHi2VBz8fP7Kc_Mwm1W-8">
          <mxGeometry y="26" width="160" height="54" as="geometry" />
        </mxCell>
        <mxCell id="zcHi2VBz8fP7Kc_Mwm1W-10" value="" style="endArrow=block;dashed=1;endFill=0;endSize=12;html=1;rounded=0;exitX=0.5;exitY=0;exitDx=0;exitDy=0;entryX=0.25;entryY=1;entryDx=0;entryDy=0;" edge="1" parent="1" source="zcHi2VBz8fP7Kc_Mwm1W-6" target="zcHi2VBz8fP7Kc_Mwm1W-1">
          <mxGeometry width="160" relative="1" as="geometry">
            <mxPoint x="325" y="520" as="sourcePoint" />
            <mxPoint x="485" y="520" as="targetPoint" />
          </mxGeometry>
        </mxCell>
        <mxCell id="zcHi2VBz8fP7Kc_Mwm1W-11" value="" style="endArrow=block;dashed=1;endFill=0;endSize=12;html=1;rounded=0;exitX=0.5;exitY=0;exitDx=0;exitDy=0;entryX=0.75;entryY=1;entryDx=0;entryDy=0;" edge="1" parent="1" source="zcHi2VBz8fP7Kc_Mwm1W-2" target="zcHi2VBz8fP7Kc_Mwm1W-1">
          <mxGeometry width="160" relative="1" as="geometry">
            <mxPoint x="340" y="605" as="sourcePoint" />
            <mxPoint x="417" y="510" as="targetPoint" />
          </mxGeometry>
        </mxCell>
        <mxCell id="zcHi2VBz8fP7Kc_Mwm1W-12" value="Scope&lt;div&gt;&lt;br&gt;&lt;/div&gt;" style="swimlane;fontStyle=1;align=center;verticalAlign=top;childLayout=stackLayout;horizontal=1;startSize=26;horizontalStack=0;resizeParent=1;resizeParentMax=0;resizeLast=0;collapsible=1;marginBottom=0;whiteSpace=wrap;html=1;" vertex="1" parent="1">
          <mxGeometry x="20" y="140" width="260" height="70" as="geometry" />
        </mxCell>
        <mxCell id="zcHi2VBz8fP7Kc_Mwm1W-13" value="&lt;div&gt;- parent: Scope&lt;/div&gt;&lt;div&gt;- symbols : HashMap &amp;lt;String, List&amp;lt;Symbol&amp;gt;&amp;gt;&lt;/div&gt;" style="text;strokeColor=none;fillColor=none;align=left;verticalAlign=top;spacingLeft=4;spacingRight=4;overflow=hidden;rotatable=0;points=[[0,0.5],[1,0.5]];portConstraint=eastwest;whiteSpace=wrap;html=1;" vertex="1" parent="zcHi2VBz8fP7Kc_Mwm1W-12">
          <mxGeometry y="26" width="260" height="44" as="geometry" />
        </mxCell>
        <mxCell id="zcHi2VBz8fP7Kc_Mwm1W-14" value="Function" style="swimlane;fontStyle=1;align=center;verticalAlign=top;childLayout=stackLayout;horizontal=1;startSize=26;horizontalStack=0;resizeParent=1;resizeParentMax=0;resizeLast=0;collapsible=1;marginBottom=0;whiteSpace=wrap;html=1;" vertex="1" parent="1">
          <mxGeometry x="354" y="120" width="170" height="110" as="geometry" />
        </mxCell>
        <mxCell id="zcHi2VBz8fP7Kc_Mwm1W-15" value="- name : String&lt;div&gt;- type : STType&lt;/div&gt;&lt;div&gt;- params : List&amp;lt;ParamNode&amp;gt;&amp;nbsp;&lt;br&gt;&lt;/div&gt;&lt;div&gt;- boolean : isVirtual&lt;/div&gt;&lt;div&gt;- boolean : hasBeenDefined&lt;/div&gt;" style="text;strokeColor=none;fillColor=none;align=left;verticalAlign=top;spacingLeft=4;spacingRight=4;overflow=hidden;rotatable=0;points=[[0,0.5],[1,0.5]];portConstraint=eastwest;whiteSpace=wrap;html=1;" vertex="1" parent="zcHi2VBz8fP7Kc_Mwm1W-14">
          <mxGeometry y="26" width="170" height="84" as="geometry" />
        </mxCell>
        <mxCell id="zcHi2VBz8fP7Kc_Mwm1W-16" value="«interface»&lt;br&gt;&lt;b&gt;Symbol&lt;/b&gt;" style="html=1;whiteSpace=wrap;" vertex="1" parent="1">
          <mxGeometry x="379" y="330" width="110" height="50" as="geometry" />
        </mxCell>
        <mxCell id="zcHi2VBz8fP7Kc_Mwm1W-18" value="Variable" style="swimlane;fontStyle=1;align=center;verticalAlign=top;childLayout=stackLayout;horizontal=1;startSize=26;horizontalStack=0;resizeParent=1;resizeParentMax=0;resizeLast=0;collapsible=1;marginBottom=0;whiteSpace=wrap;html=1;" vertex="1" parent="1">
          <mxGeometry x="595" y="300" width="160" height="80" as="geometry" />
        </mxCell>
        <mxCell id="zcHi2VBz8fP7Kc_Mwm1W-19" value="- name : String&lt;div&gt;- type: STType&lt;/div&gt;&lt;div&gt;- scope: Scope&lt;br&gt;&lt;/div&gt;" style="text;strokeColor=none;fillColor=none;align=left;verticalAlign=top;spacingLeft=4;spacingRight=4;overflow=hidden;rotatable=0;points=[[0,0.5],[1,0.5]];portConstraint=eastwest;whiteSpace=wrap;html=1;" vertex="1" parent="zcHi2VBz8fP7Kc_Mwm1W-18">
          <mxGeometry y="26" width="160" height="54" as="geometry" />
        </mxCell>
        <mxCell id="zcHi2VBz8fP7Kc_Mwm1W-20" value="" style="endArrow=block;endSize=16;endFill=0;html=1;rounded=0;exitX=0.5;exitY=0;exitDx=0;exitDy=0;entryX=0.5;entryY=1;entryDx=0;entryDy=0;" edge="1" parent="1" source="zcHi2VBz8fP7Kc_Mwm1W-1" target="zcHi2VBz8fP7Kc_Mwm1W-16">
          <mxGeometry x="0.3333" y="-41" width="160" relative="1" as="geometry">
            <mxPoint x="355" y="430" as="sourcePoint" />
            <mxPoint x="515" y="430" as="targetPoint" />
            <mxPoint as="offset" />
          </mxGeometry>
        </mxCell>
        <mxCell id="zcHi2VBz8fP7Kc_Mwm1W-21" value="" style="endArrow=block;dashed=1;endFill=0;endSize=12;html=1;rounded=0;exitX=1;exitY=0.5;exitDx=0;exitDy=0;entryX=0;entryY=0.5;entryDx=0;entryDy=0;" edge="1" parent="1" source="zcHi2VBz8fP7Kc_Mwm1W-9" target="zcHi2VBz8fP7Kc_Mwm1W-1">
          <mxGeometry width="160" relative="1" as="geometry">
            <mxPoint x="315" y="605" as="sourcePoint" />
            <mxPoint x="392" y="510" as="targetPoint" />
          </mxGeometry>
        </mxCell>
        <mxCell id="zcHi2VBz8fP7Kc_Mwm1W-22" value="" style="endArrow=block;endSize=16;endFill=0;html=1;rounded=0;exitX=0.5;exitY=0;exitDx=0;exitDy=0;entryX=0.469;entryY=0.977;entryDx=0;entryDy=0;entryPerimeter=0;" edge="1" parent="1" source="zcHi2VBz8fP7Kc_Mwm1W-8" target="zcHi2VBz8fP7Kc_Mwm1W-13">
          <mxGeometry x="0.3333" y="-41" width="160" relative="1" as="geometry">
            <mxPoint x="419" y="460" as="sourcePoint" />
            <mxPoint x="419" y="370" as="targetPoint" />
            <mxPoint as="offset" />
          </mxGeometry>
        </mxCell>
        <mxCell id="zcHi2VBz8fP7Kc_Mwm1W-23" value="" style="endArrow=block;endSize=16;endFill=0;html=1;rounded=0;entryX=1;entryY=0.5;entryDx=0;entryDy=0;" edge="1" parent="1" source="zcHi2VBz8fP7Kc_Mwm1W-15" target="zcHi2VBz8fP7Kc_Mwm1W-13">
          <mxGeometry x="0.3333" y="-41" width="160" relative="1" as="geometry">
            <mxPoint x="150" y="430" as="sourcePoint" />
            <mxPoint x="152" y="219" as="targetPoint" />
            <mxPoint as="offset" />
          </mxGeometry>
        </mxCell>
        <mxCell id="zcHi2VBz8fP7Kc_Mwm1W-24" value="" style="endArrow=block;dashed=1;endFill=0;endSize=12;html=1;rounded=0;exitX=0.488;exitY=1.06;exitDx=0;exitDy=0;entryX=0.5;entryY=0;entryDx=0;entryDy=0;exitPerimeter=0;" edge="1" parent="1" source="zcHi2VBz8fP7Kc_Mwm1W-15" target="zcHi2VBz8fP7Kc_Mwm1W-16">
          <mxGeometry width="160" relative="1" as="geometry">
            <mxPoint x="515" y="605" as="sourcePoint" />
            <mxPoint x="447" y="510" as="targetPoint" />
          </mxGeometry>
        </mxCell>
        <mxCell id="zcHi2VBz8fP7Kc_Mwm1W-25" value="" style="endArrow=block;dashed=1;endFill=0;endSize=12;html=1;rounded=0;exitX=0;exitY=0.5;exitDx=0;exitDy=0;entryX=1;entryY=0.5;entryDx=0;entryDy=0;" edge="1" parent="1" source="zcHi2VBz8fP7Kc_Mwm1W-19" target="zcHi2VBz8fP7Kc_Mwm1W-16">
          <mxGeometry width="160" relative="1" as="geometry">
            <mxPoint x="532" y="245" as="sourcePoint" />
            <mxPoint x="444" y="340" as="targetPoint" />
          </mxGeometry>
        </mxCell>
      </root>
    </mxGraphModel>
  </diagram>
</mxfile>
